<svg width="156" height="38" viewBox="0 0 156 38" fill="none" xmlns="http://www.w3.org/2000/svg">
<path d="M17.0545 0.955053C18.0449 -0.318351 19.955 -0.318351 20.9455 0.955053L22.7141 3.22899C22.9364 3.52207 23.3306 3.62314 23.6742 3.48165L26.3423 2.40027C27.8279 1.79388 29.4955 2.75399 29.7077 4.3508L30.1019 7.2008C30.1524 7.56463 30.4354 7.84761 30.7992 7.89814L33.6492 8.29229C35.246 8.51463 36.196 10.1721 35.5997 11.6577L34.5184 14.3258C34.3769 14.6694 34.488 15.0535 34.771 15.2859L37.0449 17.0545C38.3184 18.0449 38.3184 19.955 37.0449 20.9455L34.771 22.7141C34.4779 22.9364 34.3769 23.3306 34.5184 23.6742L35.5997 26.3423C36.2061 27.8279 35.246 29.4955 33.6492 29.7077L30.7992 30.1019C30.4354 30.1524 30.1524 30.4354 30.1019 30.7992L29.7077 33.6492C29.4854 35.246 27.8279 36.196 26.3423 35.5997L23.6742 34.5184C23.3306 34.3769 22.9465 34.488 22.7141 34.771L20.9455 37.0449C19.955 38.3184 18.0449 38.3184 17.0545 37.0449L15.2859 34.771C15.0636 34.4779 14.6694 34.3769 14.3258 34.5184L11.6577 35.5997C10.1721 36.2061 8.50452 35.246 8.29229 33.6492L7.89814 30.7992C7.84761 30.4354 7.56463 30.1524 7.2008 30.1019L4.3508 29.6976C2.75399 29.4753 1.80399 27.8178 2.40027 26.3322L3.48165 23.6641C3.62314 23.3205 3.51197 22.9364 3.22899 22.704L0.955053 20.9354C-0.318351 19.9449 -0.318351 18.0348 0.955053 17.0444L3.22899 15.2758C3.52207 15.0535 3.62314 14.6593 3.48165 14.3157L2.40027 11.6476C1.79388 10.1721 2.75399 8.51463 4.3508 8.29229L7.2008 7.89814C7.56463 7.84761 7.84761 7.56463 7.89814 7.2008L8.29229 4.3508C8.51463 2.75399 10.1721 1.80399 11.6577 2.40027L14.3258 3.48165C14.6694 3.62314 15.0535 3.51197 15.2859 3.22899L17.0545 0.955053Z" fill="url(#paint0_linear)"/>
<path d="M15 21.2245V19.357H16.3322C17.1153 19.357 17.7364 19.2098 18.1955 18.9062C18.6545 18.6026 18.9336 18.1334 19.0416 17.4895H15V16.3487L16.4132 16.2475H19.0056C18.8616 15.7415 18.5645 15.3827 18.1235 15.1619C17.6824 14.9411 17.0793 14.8399 16.3412 14.8399H15V13H22.6151V14.2236H19.9237C20.2658 14.4536 20.5538 14.7387 20.7879 15.0883C21.0219 15.4379 21.1839 15.8243 21.2559 16.2475H22.6061V17.4895H21.3009C21.2109 18.4094 20.9319 19.1546 20.4548 19.7066C19.9867 20.2586 19.3836 20.6634 18.6455 20.9026L22.1561 25.76H19.5817L16.4582 21.2245H15Z" fill="white"/>
<path opacity="0.8" d="M46.387 11.172C46.618 10.413 46.827 9.599 47.025 8.796H47.069C47.278 9.588 47.487 10.413 47.718 11.172L47.971 12.052H46.134L46.387 11.172ZM43.978 15H45.276L45.837 13.053H48.257L48.818 15H50.16L47.817 7.806H46.321L43.978 15ZM51.0468 15H55.3148V13.922H52.3228V7.806H51.0468V15ZM56.5683 15H60.8363V13.922H57.8443V7.806H56.5683V15ZM61.1016 12.69H63.7196V11.766H61.1016V12.69ZM65.0976 15H66.3736V7.806H65.0976V15ZM68.2021 15H69.4231V11.854C69.4231 11.051 69.3131 10.182 69.2581 9.423H69.3021L70.0391 10.952L72.2831 15H73.5921V7.806H72.3711V10.93C72.3711 11.733 72.4811 12.646 72.5361 13.383H72.4921L71.7551 11.854L69.5111 7.806H68.2021V15ZM78.2918 15.132C79.2158 15.132 79.9748 14.758 80.5578 14.087L79.8758 13.284C79.4688 13.724 78.9738 14.021 78.3358 14.021C77.1258 14.021 76.3558 13.031 76.3558 11.392C76.3558 9.775 77.1918 8.785 78.3688 8.785C78.9298 8.785 79.3588 9.038 79.7328 9.412L80.4148 8.587C79.9638 8.103 79.2378 7.674 78.3358 7.674C76.5208 7.674 75.0468 9.071 75.0468 11.425C75.0468 13.812 76.4768 15.132 78.2918 15.132ZM81.7587 15H86.0267V13.922H83.0347V7.806H81.7587V15ZM89.61 15.132C91.282 15.132 92.327 14.208 92.327 11.843V7.806H91.106V11.942C91.106 13.504 90.49 14.021 89.61 14.021C88.741 14.021 88.158 13.504 88.158 11.942V7.806H86.882V11.843C86.882 14.208 87.949 15.132 89.61 15.132ZM96.1165 15.132C97.7335 15.132 98.7015 14.164 98.7015 12.998C98.7015 11.953 98.0965 11.414 97.2495 11.051L96.2705 10.644C95.6765 10.402 95.1265 10.193 95.1265 9.632C95.1265 9.104 95.5775 8.785 96.2595 8.785C96.8755 8.785 97.3595 9.016 97.8215 9.401L98.4705 8.587C97.9095 8.026 97.0955 7.674 96.2595 7.674C94.8515 7.674 93.8395 8.554 93.8395 9.698C93.8395 10.754 94.5875 11.315 95.2915 11.612L96.2815 12.041C96.9305 12.316 97.3925 12.503 97.3925 13.097C97.3925 13.658 96.9525 14.021 96.1385 14.021C95.4785 14.021 94.7855 13.691 94.2685 13.207L93.5205 14.076C94.2025 14.747 95.1485 15.132 96.1165 15.132ZM100.01 15H101.286V7.806H100.01V15ZM104.401 15H105.908L108.141 7.806H106.832L105.831 11.425C105.611 12.239 105.446 12.943 105.204 13.768H105.16C104.918 12.943 104.753 12.239 104.522 11.425L103.51 7.806H102.157L104.401 15ZM109.012 15H113.456V13.922H110.288V11.799H112.873V10.721H110.288V8.884H113.346V7.806H109.012V15ZM117.133 15H118.409V12.36H119.443C120.994 12.36 122.182 11.623 122.182 10.028C122.182 8.356 120.994 7.806 119.399 7.806H117.133V15ZM118.409 11.337V8.829H119.3C120.367 8.829 120.928 9.126 120.928 10.028C120.928 10.908 120.411 11.337 119.344 11.337H118.409ZM123.535 15H124.811V12.184H125.911L127.462 15H128.892L127.176 11.997C128.034 11.7 128.606 11.04 128.606 9.94C128.606 8.334 127.462 7.806 125.966 7.806H123.535V15ZM124.811 11.172V8.829H125.834C126.813 8.829 127.352 9.115 127.352 9.94C127.352 10.754 126.813 11.172 125.834 11.172H124.811ZM130.045 15H131.321V7.806H130.045V15ZM136.02 15.132C136.944 15.132 137.703 14.758 138.286 14.087L137.604 13.284C137.197 13.724 136.702 14.021 136.064 14.021C134.854 14.021 134.084 13.031 134.084 11.392C134.084 9.775 134.92 8.785 136.097 8.785C136.658 8.785 137.087 9.038 137.461 9.412L138.143 8.587C137.692 8.103 136.966 7.674 136.064 7.674C134.249 7.674 132.775 9.071 132.775 11.425C132.775 13.812 134.205 15.132 136.02 15.132ZM139.487 15H140.763V7.806H139.487V15ZM142.592 15H143.813V11.854C143.813 11.051 143.703 10.182 143.648 9.423H143.692L144.429 10.952L146.673 15H147.982V7.806H146.761V10.93C146.761 11.733 146.871 12.646 146.926 13.383H146.882L146.145 11.854L143.901 7.806H142.592V15ZM152.824 15.132C153.803 15.132 154.639 14.758 155.123 14.274V11.106H152.615V12.151H153.979V13.702C153.748 13.911 153.352 14.021 152.945 14.021C151.504 14.021 150.745 13.031 150.745 11.392C150.745 9.775 151.603 8.785 152.879 8.785C153.55 8.785 153.968 9.06 154.331 9.412L155.013 8.587C154.562 8.125 153.858 7.674 152.835 7.674C150.921 7.674 149.436 9.071 149.436 11.425C149.436 13.812 150.877 15.132 152.824 15.132ZM44.913 31H46.134V27.854C46.134 27.051 46.024 26.182 45.969 25.423H46.013L46.75 26.952L48.994 31H50.303V23.806H49.082V26.93C49.082 27.733 49.192 28.646 49.247 29.383H49.203L48.466 27.854L46.222 23.806H44.913V31ZM54.9258 31.132C56.8068 31.132 58.1048 29.702 58.1048 27.37C58.1048 25.049 56.8068 23.674 54.9258 23.674C53.0558 23.674 51.7578 25.049 51.7578 27.37C51.7578 29.702 53.0558 31.132 54.9258 31.132ZM54.9258 30.021C53.7928 30.021 53.0668 28.987 53.0668 27.37C53.0668 25.764 53.7928 24.785 54.9258 24.785C56.0588 24.785 56.7848 25.764 56.7848 27.37C56.7848 28.987 56.0588 30.021 54.9258 30.021ZM61.746 31H63.022V27.81H65.937V31H67.213V23.806H65.937V26.699H63.022V23.806H61.746V31ZM69.04 31H70.316V23.806H69.04V31ZM72.1444 31H74.1354C76.2694 31 77.5674 29.757 77.5674 27.37C77.5674 24.994 76.2694 23.806 74.0694 23.806H72.1444V31ZM73.4204 29.966V24.84H73.9814C75.4334 24.84 76.2584 25.61 76.2584 27.37C76.2584 29.141 75.4334 29.966 73.9814 29.966H73.4204ZM79.0194 31H81.0104C83.1444 31 84.4424 29.757 84.4424 27.37C84.4424 24.994 83.1444 23.806 80.9444 23.806H79.0194V31ZM80.2954 29.966V24.84H80.8564C82.3084 24.84 83.1334 25.61 83.1334 27.37C83.1334 29.141 82.3084 29.966 80.8564 29.966H80.2954ZM85.8944 31H90.3384V29.922H87.1704V27.799H89.7554V26.721H87.1704V24.884H90.2284V23.806H85.8944V31ZM91.8134 31H93.0344V27.854C93.0344 27.051 92.9244 26.182 92.8694 25.423H92.9134L93.6504 26.952L95.8944 31H97.2034V23.806H95.9824V26.93C95.9824 27.733 96.0924 28.646 96.1474 29.383H96.1034L95.3664 27.854L93.1224 23.806H91.8134V31ZM104.105 31.132C105.029 31.132 105.788 30.758 106.371 30.087L105.689 29.284C105.282 29.724 104.787 30.021 104.149 30.021C102.939 30.021 102.169 29.031 102.169 27.392C102.169 25.775 103.005 24.785 104.182 24.785C104.743 24.785 105.172 25.038 105.546 25.412L106.228 24.587C105.777 24.103 105.051 23.674 104.149 23.674C102.334 23.674 100.86 25.071 100.86 27.425C100.86 29.812 102.29 31.132 104.105 31.132ZM110.001 31.132C111.882 31.132 113.18 29.702 113.18 27.37C113.18 25.049 111.882 23.674 110.001 23.674C108.131 23.674 106.833 25.049 106.833 27.37C106.833 29.702 108.131 31.132 110.001 31.132ZM110.001 30.021C108.868 30.021 108.142 28.987 108.142 27.37C108.142 25.764 108.868 24.785 110.001 24.785C111.134 24.785 111.86 25.764 111.86 27.37C111.86 28.987 111.134 30.021 110.001 30.021ZM116.72 31.132C118.337 31.132 119.305 30.164 119.305 28.998C119.305 27.953 118.7 27.414 117.853 27.051L116.874 26.644C116.28 26.402 115.73 26.193 115.73 25.632C115.73 25.104 116.181 24.785 116.863 24.785C117.479 24.785 117.963 25.016 118.425 25.401L119.074 24.587C118.513 24.026 117.699 23.674 116.863 23.674C115.455 23.674 114.443 24.554 114.443 25.698C114.443 26.754 115.191 27.315 115.895 27.612L116.885 28.041C117.534 28.316 117.996 28.503 117.996 29.097C117.996 29.658 117.556 30.021 116.742 30.021C116.082 30.021 115.389 29.691 114.872 29.207L114.124 30.076C114.806 30.747 115.752 31.132 116.72 31.132ZM121.85 31H123.126V24.884H125.205V23.806H119.771V24.884H121.85V31ZM128.15 31.132C129.767 31.132 130.735 30.164 130.735 28.998C130.735 27.953 130.13 27.414 129.283 27.051L128.304 26.644C127.71 26.402 127.16 26.193 127.16 25.632C127.16 25.104 127.611 24.785 128.293 24.785C128.909 24.785 129.393 25.016 129.855 25.401L130.504 24.587C129.943 24.026 129.129 23.674 128.293 23.674C126.885 23.674 125.873 24.554 125.873 25.698C125.873 26.754 126.621 27.315 127.325 27.612L128.315 28.041C128.964 28.316 129.426 28.503 129.426 29.097C129.426 29.658 128.986 30.021 128.172 30.021C127.512 30.021 126.819 29.691 126.302 29.207L125.554 30.076C126.236 30.747 127.182 31.132 128.15 31.132Z" fill="#666666"/>
<defs>
<linearGradient id="paint0_linear" x1="0.00505319" y1="18.9965" x2="37.9878" y2="18.9965" gradientUnits="userSpaceOnUse">
<stop stop-color="#FFAD3C"/>
<stop offset="1" stop-color="#FC8353"/>
</linearGradient>
</defs>
</svg>
