<svg width="126" height="35" viewBox="0 0 126 35" fill="none" xmlns="http://www.w3.org/2000/svg">
<path d="M32.7495 32.6691H3.34754C2.17439 32.6691 1.23038 31.6269 1.23038 30.3543V4.71116C1.23038 3.43852 2.17439 2.39636 3.34754 2.39636H32.7495C33.9227 2.39636 34.8667 3.43852 34.8667 4.71116V30.3443C34.8758 31.6269 33.9227 32.6691 32.7495 32.6691Z" fill="url(#paint0_linear)"/>
<path d="M18.6646 19.546L23.7165 14.6649L26.9103 14.7051C26.9103 14.7051 30.2347 14.6749 30.8875 11.7322C31.4901 9.0205 28.8286 7.13233 26.5086 7.82533C24.9418 8.28733 23.6864 9.67332 23.6763 11.6619V14.3536" stroke="white" stroke-width="1.5" stroke-miterlimit="10"/>
<path d="M28.5774 19.546L23.5256 14.6649L20.3317 14.7051C20.3317 14.7051 17.0074 14.6749 16.3546 11.7322C15.7519 9.0205 18.4135 7.13233 20.7335 7.82533C22.3003 8.28733 23.5557 9.67332 23.5657 11.6619V14.3536" stroke="white" stroke-width="1.5" stroke-miterlimit="10"/>
<path d="M23.6562 0L23.6361 34.816" stroke="white" stroke-width="1.5" stroke-miterlimit="10"/>
<path d="M37 14.9692H0" stroke="white" stroke-width="1.5" stroke-miterlimit="10"/>
<path opacity="0.8" d="M44.784 13.132C45.708 13.132 46.467 12.758 47.05 12.087L46.368 11.284C45.961 11.724 45.466 12.021 44.828 12.021C43.618 12.021 42.848 11.031 42.848 9.392C42.848 7.775 43.684 6.785 44.861 6.785C45.422 6.785 45.851 7.038 46.225 7.412L46.907 6.587C46.456 6.103 45.73 5.674 44.828 5.674C43.013 5.674 41.539 7.071 41.539 9.425C41.539 11.812 42.969 13.132 44.784 13.132ZM50.6796 13.132C52.5606 13.132 53.8586 11.702 53.8586 9.37C53.8586 7.049 52.5606 5.674 50.6796 5.674C48.8096 5.674 47.5116 7.049 47.5116 9.37C47.5116 11.702 48.8096 13.132 50.6796 13.132ZM50.6796 12.021C49.5466 12.021 48.8206 10.987 48.8206 9.37C48.8206 7.764 49.5466 6.785 50.6796 6.785C51.8126 6.785 52.5386 7.764 52.5386 9.37C52.5386 10.987 51.8126 12.021 50.6796 12.021ZM55.2977 13H56.4527V9.711C56.4527 9.04 56.3427 8.083 56.2877 7.423H56.3317L56.9037 9.095L58.0917 12.329H58.8507L60.0277 9.095L60.6107 7.423H60.6547C60.5887 8.083 60.4897 9.04 60.4897 9.711V13H61.6667V5.806H60.2147L58.9717 9.326C58.8177 9.777 58.6747 10.261 58.5207 10.734H58.4767C58.3227 10.261 58.1687 9.777 58.0147 9.326L56.7387 5.806H55.2977V13ZM63.494 13H64.77V10.36H65.804C67.355 10.36 68.543 9.623 68.543 8.028C68.543 6.356 67.355 5.806 65.76 5.806H63.494V13ZM64.77 9.337V6.829H65.661C66.728 6.829 67.289 7.126 67.289 8.028C67.289 8.908 66.772 9.337 65.705 9.337H64.77ZM69.8964 13H74.1644V11.922H71.1724V5.806H69.8964V13ZM75.4179 13H79.8619V11.922H76.6939V9.799H79.2789V8.721H76.6939V6.884H79.7519V5.806H75.4179V13ZM81.3368 13H82.4918V9.711C82.4918 9.04 82.3818 8.083 82.3268 7.423H82.3708L82.9428 9.095L84.1308 12.329H84.8898L86.0668 9.095L86.6498 7.423H86.6938C86.6278 8.083 86.5288 9.04 86.5288 9.711V13H87.7058V5.806H86.2538L85.0108 9.326C84.8568 9.777 84.7138 10.261 84.5598 10.734H84.5158C84.3618 10.261 84.2078 9.777 84.0538 9.326L82.7778 5.806H81.3368V13ZM89.5331 13H93.9771V11.922H90.8091V9.799H93.3941V8.721H90.8091V6.884H93.8671V5.806H89.5331V13ZM95.452 13H96.673V9.854C96.673 9.051 96.563 8.182 96.508 7.423H96.552L97.289 8.952L99.533 13H100.842V5.806H99.621V8.93C99.621 9.733 99.731 10.646 99.786 11.383H99.742L99.005 9.854L96.761 5.806H95.452V13ZM104.123 13H105.399V6.884H107.478V5.806H102.044V6.884H104.123V13ZM109.709 9.172C109.94 8.413 110.149 7.599 110.347 6.796H110.391C110.6 7.588 110.809 8.413 111.04 9.172L111.293 10.052H109.456L109.709 9.172ZM107.3 13H108.598L109.159 11.053H111.579L112.14 13H113.482L111.139 5.806H109.643L107.3 13ZM114.369 13H115.645V10.184H116.745L118.296 13H119.726L118.01 9.997C118.868 9.7 119.44 9.04 119.44 7.94C119.44 6.334 118.296 5.806 116.8 5.806H114.369V13ZM115.645 9.172V6.829H116.668C117.647 6.829 118.186 7.115 118.186 7.94C118.186 8.754 117.647 9.172 116.668 9.172H115.645ZM121.992 13H123.268V10.327L125.435 5.806H124.104L123.323 7.643C123.114 8.182 122.894 8.677 122.663 9.227H122.619C122.388 8.677 122.19 8.182 121.981 7.643L121.2 5.806H119.836L121.992 10.327V13ZM44.608 29.132C46.28 29.132 47.325 28.208 47.325 25.843V21.806H46.104V25.942C46.104 27.504 45.488 28.021 44.608 28.021C43.739 28.021 43.156 27.504 43.156 25.942V21.806H41.88V25.843C41.88 28.208 42.947 29.132 44.608 29.132ZM49.121 29H50.397V26.36H51.431C52.982 26.36 54.17 25.623 54.17 24.028C54.17 22.356 52.982 21.806 51.387 21.806H49.121V29ZM50.397 25.337V22.829H51.288C52.355 22.829 52.916 23.126 52.916 24.028C52.916 24.908 52.399 25.337 51.332 25.337H50.397ZM58.5373 29.132C59.5163 29.132 60.3523 28.758 60.8363 28.274V25.106H58.3283V26.151H59.6923V27.702C59.4613 27.911 59.0653 28.021 58.6583 28.021C57.2173 28.021 56.4583 27.031 56.4583 25.392C56.4583 23.775 57.3163 22.785 58.5923 22.785C59.2633 22.785 59.6813 23.06 60.0443 23.412L60.7263 22.587C60.2753 22.125 59.5713 21.674 58.5483 21.674C56.6343 21.674 55.1493 23.071 55.1493 25.425C55.1493 27.812 56.5903 29.132 58.5373 29.132ZM62.4305 29H63.7065V26.184H64.8065L66.3575 29H67.7875L66.0715 25.997C66.9295 25.7 67.5015 25.04 67.5015 23.94C67.5015 22.334 66.3575 21.806 64.8615 21.806H62.4305V29ZM63.7065 25.172V22.829H64.7295C65.7085 22.829 66.2475 23.115 66.2475 23.94C66.2475 24.754 65.7085 25.172 64.7295 25.172H63.7065ZM70.3499 25.172C70.5809 24.413 70.7899 23.599 70.9879 22.796H71.0319C71.2409 23.588 71.4499 24.413 71.6809 25.172L71.9339 26.052H70.0969L70.3499 25.172ZM67.9409 29H69.2389L69.7999 27.053H72.2199L72.7809 29H74.1229L71.7799 21.806H70.2839L67.9409 29ZM75.0096 29H77.0006C79.1346 29 80.4326 27.757 80.4326 25.37C80.4326 22.994 79.1346 21.806 76.9346 21.806H75.0096V29ZM76.2856 27.966V22.84H76.8466C78.2986 22.84 79.1236 23.61 79.1236 25.37C79.1236 27.141 78.2986 27.966 76.8466 27.966H76.2856ZM81.8846 29H86.3286V27.922H83.1606V25.799H85.7456V24.721H83.1606V22.884H86.2186V21.806H81.8846V29ZM89.9046 29.132C91.5216 29.132 92.4896 28.164 92.4896 26.998C92.4896 25.953 91.8846 25.414 91.0376 25.051L90.0586 24.644C89.4646 24.402 88.9146 24.193 88.9146 23.632C88.9146 23.104 89.3656 22.785 90.0476 22.785C90.6636 22.785 91.1476 23.016 91.6096 23.401L92.2586 22.587C91.6976 22.026 90.8836 21.674 90.0476 21.674C88.6396 21.674 87.6276 22.554 87.6276 23.698C87.6276 24.754 88.3756 25.315 89.0796 25.612L90.0696 26.041C90.7186 26.316 91.1806 26.503 91.1806 27.097C91.1806 27.658 90.7406 28.021 89.9266 28.021C89.2666 28.021 88.5736 27.691 88.0566 27.207L87.3086 28.076C87.9906 28.747 88.9366 29.132 89.9046 29.132Z" fill="#666666"/>
<defs>
<linearGradient id="paint0_linear" x1="1.229" y1="17.5324" x2="34.8746" y2="17.5324" gradientUnits="userSpaceOnUse">
<stop stop-color="#FFAD3C"/>
<stop offset="1" stop-color="#FC8353"/>
</linearGradient>
</defs>
</svg>
