<svg width="148" height="37" viewBox="0 0 148 37" fill="none" xmlns="http://www.w3.org/2000/svg">
<g opacity="0.3">
<path d="M37.6224 11.4542C35.3224 18.6542 23.7624 20.6142 23.7624 20.6142C23.7624 20.6142 15.1424 12.5042 17.2924 5.25415C18.9224 -0.235847 25.1024 -2.16585 28.9724 3.09415C34.4024 0.234153 39.4324 5.79415 37.6224 11.4542Z" fill="#F9C088"/>
</g>
<path d="M33.8624 14.2631C35.3824 26.2731 19.9224 36.9331 19.9224 36.9331C19.9224 36.9331 1.93238 30.9531 0.152378 18.9831C-1.18762 9.90313 6.50238 2.93313 15.6624 7.95313C21.6124 0.123131 32.6724 4.81313 33.8624 14.2631Z" fill="url(#paint0_linear)"/>
<path d="M11 18.058C11 16.1248 12.0689 15 13.4883 15C14.9076 15 15.9765 16.1248 15.9765 18.058C15.9765 19.9824 14.9076 21.1424 13.4883 21.1424C12.0689 21.1424 11 19.9824 11 18.058ZM14.2242 18.058C14.2242 16.7487 13.8738 16.3972 13.4883 16.3972C13.1027 16.3972 12.7523 16.7575 12.7523 18.058C12.7523 19.3585 13.1115 19.7452 13.4883 19.7452C13.865 19.7452 14.2242 19.3585 14.2242 18.058ZM18.9817 15H20.401L15.2581 25H13.8387L18.9817 15ZM18.2457 21.9069C18.2457 19.9824 19.3146 18.8489 20.734 18.8489C22.1533 18.8489 23.2222 19.9736 23.2222 21.9069C23.2222 23.8401 22.1533 24.9912 20.734 24.9912C19.3059 25 18.2457 23.8401 18.2457 21.9069ZM21.4699 21.9069C21.4699 20.6063 21.1107 20.246 20.734 20.246C20.3572 20.246 19.998 20.6063 19.998 21.9069C19.998 23.2162 20.3572 23.594 20.734 23.594C21.1107 23.594 21.4699 23.2162 21.4699 21.9069Z" fill="white"/>
<path opacity="0.8" d="M47.014 15.132C48.631 15.132 49.599 14.164 49.599 12.998C49.599 11.953 48.994 11.414 48.147 11.051L47.168 10.644C46.574 10.402 46.024 10.193 46.024 9.632C46.024 9.104 46.475 8.785 47.157 8.785C47.773 8.785 48.257 9.016 48.719 9.401L49.368 8.587C48.807 8.026 47.993 7.674 47.157 7.674C45.749 7.674 44.737 8.554 44.737 9.698C44.737 10.754 45.485 11.315 46.189 11.612L47.179 12.041C47.828 12.316 48.29 12.503 48.29 13.097C48.29 13.658 47.85 14.021 47.036 14.021C46.376 14.021 45.683 13.691 45.166 13.207L44.418 14.076C45.1 14.747 46.046 15.132 47.014 15.132ZM50.9071 15H52.1831V12.36H53.2171C54.7681 12.36 55.9561 11.623 55.9561 10.028C55.9561 8.356 54.7681 7.806 53.1731 7.806H50.9071V15ZM52.1831 11.337V8.829H53.0741C54.1411 8.829 54.7021 9.126 54.7021 10.028C54.7021 10.908 54.1851 11.337 53.1181 11.337H52.1831ZM57.3095 15H61.7535V13.922H58.5855V11.799H61.1705V10.721H58.5855V8.884H61.6435V7.806H57.3095V15ZM66.0994 15.132C67.0234 15.132 67.7824 14.758 68.3654 14.087L67.6834 13.284C67.2764 13.724 66.7814 14.021 66.1434 14.021C64.9334 14.021 64.1634 13.031 64.1634 11.392C64.1634 9.775 64.9994 8.785 66.1764 8.785C66.7374 8.785 67.1664 9.038 67.5404 9.412L68.2224 8.587C67.7714 8.103 67.0454 7.674 66.1434 7.674C64.3284 7.674 62.8544 9.071 62.8544 11.425C62.8544 13.812 64.2844 15.132 66.0994 15.132ZM69.5663 15H70.8423V7.806H69.5663V15ZM74.1448 11.172C74.3758 10.413 74.5848 9.599 74.7828 8.796H74.8268C75.0358 9.588 75.2448 10.413 75.4758 11.172L75.7288 12.052H73.8918L74.1448 11.172ZM71.7358 15H73.0338L73.5948 13.053H76.0148L76.5758 15H77.9178L75.5748 7.806H74.0788L71.7358 15ZM78.8046 15H83.0726V13.922H80.0806V7.806H78.8046V15ZM86.5282 15H88.5192C90.6532 15 91.9512 13.757 91.9512 11.37C91.9512 8.994 90.6532 7.806 88.4532 7.806H86.5282V15ZM87.8042 13.966V8.84H88.3652C89.8172 8.84 90.6422 9.61 90.6422 11.37C90.6422 13.141 89.8172 13.966 88.3652 13.966H87.8042ZM93.4032 15H94.6792V7.806H93.4032V15ZM98.6087 15.132C100.226 15.132 101.194 14.164 101.194 12.998C101.194 11.953 100.589 11.414 99.7417 11.051L98.7627 10.644C98.1687 10.402 97.6187 10.193 97.6187 9.632C97.6187 9.104 98.0697 8.785 98.7517 8.785C99.3677 8.785 99.8517 9.016 100.314 9.401L100.963 8.587C100.402 8.026 99.5877 7.674 98.7517 7.674C97.3437 7.674 96.3317 8.554 96.3317 9.698C96.3317 10.754 97.0797 11.315 97.7837 11.612L98.7737 12.041C99.4227 12.316 99.8847 12.503 99.8847 13.097C99.8847 13.658 99.4447 14.021 98.6307 14.021C97.9707 14.021 97.2777 13.691 96.7607 13.207L96.0127 14.076C96.6947 14.747 97.6407 15.132 98.6087 15.132ZM105.373 15.132C106.297 15.132 107.056 14.758 107.639 14.087L106.957 13.284C106.55 13.724 106.055 14.021 105.417 14.021C104.207 14.021 103.437 13.031 103.437 11.392C103.437 9.775 104.273 8.785 105.45 8.785C106.011 8.785 106.44 9.038 106.814 9.412L107.496 8.587C107.045 8.103 106.319 7.674 105.417 7.674C103.602 7.674 102.128 9.071 102.128 11.425C102.128 13.812 103.558 15.132 105.373 15.132ZM111.269 15.132C113.15 15.132 114.448 13.702 114.448 11.37C114.448 9.049 113.15 7.674 111.269 7.674C109.399 7.674 108.101 9.049 108.101 11.37C108.101 13.702 109.399 15.132 111.269 15.132ZM111.269 14.021C110.136 14.021 109.41 12.987 109.41 11.37C109.41 9.764 110.136 8.785 111.269 8.785C112.402 8.785 113.128 9.764 113.128 11.37C113.128 12.987 112.402 14.021 111.269 14.021ZM118.582 15.132C120.254 15.132 121.299 14.208 121.299 11.843V7.806H120.078V11.942C120.078 13.504 119.462 14.021 118.582 14.021C117.713 14.021 117.13 13.504 117.13 11.942V7.806H115.854V11.843C115.854 14.208 116.921 15.132 118.582 15.132ZM123.095 15H124.316V11.854C124.316 11.051 124.206 10.182 124.151 9.423H124.195L124.932 10.952L127.176 15H128.485V7.806H127.264V10.93C127.264 11.733 127.374 12.646 127.429 13.383H127.385L126.648 11.854L124.404 7.806H123.095V15ZM131.765 15H133.041V8.884H135.12V7.806H129.686V8.884H131.765V15ZM138.065 15.132C139.682 15.132 140.65 14.164 140.65 12.998C140.65 11.953 140.045 11.414 139.198 11.051L138.219 10.644C137.625 10.402 137.075 10.193 137.075 9.632C137.075 9.104 137.526 8.785 138.208 8.785C138.824 8.785 139.308 9.016 139.77 9.401L140.419 8.587C139.858 8.026 139.044 7.674 138.208 7.674C136.8 7.674 135.788 8.554 135.788 9.698C135.788 10.754 136.536 11.315 137.24 11.612L138.23 12.041C138.879 12.316 139.341 12.503 139.341 13.097C139.341 13.658 138.901 14.021 138.087 14.021C137.427 14.021 136.734 13.691 136.217 13.207L135.469 14.076C136.151 14.747 137.097 15.132 138.065 15.132ZM44.913 31H46.189V27.997H48.807V26.919H46.189V24.884H49.258V23.806H44.913V31ZM53.207 31.132C55.088 31.132 56.386 29.702 56.386 27.37C56.386 25.049 55.088 23.674 53.207 23.674C51.337 23.674 50.039 25.049 50.039 27.37C50.039 29.702 51.337 31.132 53.207 31.132ZM53.207 30.021C52.074 30.021 51.348 28.987 51.348 27.37C51.348 25.764 52.074 24.785 53.207 24.785C54.34 24.785 55.066 25.764 55.066 27.37C55.066 28.987 54.34 30.021 53.207 30.021ZM57.8251 31H59.1011V28.184H60.2011L61.7521 31H63.1821L61.4661 27.997C62.3241 27.7 62.8961 27.04 62.8961 25.94C62.8961 24.334 61.7521 23.806 60.2561 23.806H57.8251V31ZM59.1011 27.172V24.829H60.1241C61.1031 24.829 61.6421 25.115 61.6421 25.94C61.6421 26.754 61.1031 27.172 60.1241 27.172H59.1011ZM66.537 31H67.813V27.81H70.728V31H72.004V23.806H70.728V26.699H67.813V23.806H66.537V31ZM76.625 31.132C78.506 31.132 79.804 29.702 79.804 27.37C79.804 25.049 78.506 23.674 76.625 23.674C74.755 23.674 73.457 25.049 73.457 27.37C73.457 29.702 74.755 31.132 76.625 31.132ZM76.625 30.021C75.492 30.021 74.766 28.987 74.766 27.37C74.766 25.764 75.492 24.785 76.625 24.785C77.758 24.785 78.484 25.764 78.484 27.37C78.484 28.987 77.758 30.021 76.625 30.021ZM81.2431 31H82.4641V27.854C82.4641 27.051 82.3541 26.182 82.2991 25.423H82.3431L83.0801 26.952L85.3241 31H86.6331V23.806H85.4121V26.93C85.4121 27.733 85.5221 28.646 85.5771 29.383H85.5331L84.7961 27.854L82.5521 23.806H81.2431V31ZM88.4618 31H92.9058V29.922H89.7378V27.799H92.3228V26.721H89.7378V24.884H92.7958V23.806H88.4618V31ZM95.5798 31H96.8558V28.327L99.0228 23.806H97.6918L96.9108 25.643C96.7018 26.182 96.4818 26.677 96.2508 27.227H96.2068C95.9758 26.677 95.7778 26.182 95.5688 25.643L94.7878 23.806H93.4238L95.5798 28.327V31ZM99.8915 31H101.047V27.711C101.047 27.04 100.937 26.083 100.882 25.423H100.926L101.498 27.095L102.686 30.329H103.445L104.622 27.095L105.205 25.423H105.249C105.183 26.083 105.084 27.04 105.084 27.711V31H106.261V23.806H104.809L103.566 27.326C103.412 27.777 103.269 28.261 103.115 28.734H103.071C102.917 28.261 102.763 27.777 102.609 27.326L101.333 23.806H99.8915V31ZM110.882 31.132C112.763 31.132 114.061 29.702 114.061 27.37C114.061 25.049 112.763 23.674 110.882 23.674C109.012 23.674 107.714 25.049 107.714 27.37C107.714 29.702 109.012 31.132 110.882 31.132ZM110.882 30.021C109.749 30.021 109.023 28.987 109.023 27.37C109.023 25.764 109.749 24.785 110.882 24.785C112.015 24.785 112.741 25.764 112.741 27.37C112.741 28.987 112.015 30.021 110.882 30.021ZM118.294 31.132C120.175 31.132 121.473 29.702 121.473 27.37C121.473 25.049 120.175 23.674 118.294 23.674C116.424 23.674 115.126 25.049 115.126 27.37C115.126 29.702 116.424 31.132 118.294 31.132ZM118.294 30.021C117.161 30.021 116.435 28.987 116.435 27.37C116.435 25.764 117.161 24.785 118.294 24.785C119.427 24.785 120.153 25.764 120.153 27.37C120.153 28.987 119.427 30.021 118.294 30.021ZM122.912 31H124.133V27.854C124.133 27.051 124.023 26.182 123.968 25.423H124.012L124.749 26.952L126.993 31H128.302V23.806H127.081V26.93C127.081 27.733 127.191 28.646 127.246 29.383H127.202L126.465 27.854L124.221 23.806H122.912V31ZM130.131 31H134.575V29.922H131.407V27.799H133.992V26.721H131.407V24.884H134.465V23.806H130.131V31ZM136.05 31H137.326V28.184H138.426L139.977 31H141.407L139.691 27.997C140.549 27.7 141.121 27.04 141.121 25.94C141.121 24.334 139.977 23.806 138.481 23.806H136.05V31ZM137.326 27.172V24.829H138.349C139.328 24.829 139.867 25.115 139.867 25.94C139.867 26.754 139.328 27.172 138.349 27.172H137.326ZM144.51 31.132C146.127 31.132 147.095 30.164 147.095 28.998C147.095 27.953 146.49 27.414 145.643 27.051L144.664 26.644C144.07 26.402 143.52 26.193 143.52 25.632C143.52 25.104 143.971 24.785 144.653 24.785C145.269 24.785 145.753 25.016 146.215 25.401L146.864 24.587C146.303 24.026 145.489 23.674 144.653 23.674C143.245 23.674 142.233 24.554 142.233 25.698C142.233 26.754 142.981 27.315 143.685 27.612L144.675 28.041C145.324 28.316 145.786 28.503 145.786 29.097C145.786 29.658 145.346 30.021 144.532 30.021C143.872 30.021 143.179 29.691 142.662 29.207L141.914 30.076C142.596 30.747 143.542 31.132 144.51 31.132Z" fill="#666666"/>
<defs>
<linearGradient id="paint0_linear" x1="0.765882" y1="23.3306" x2="34.4767" y2="18.6057" gradientUnits="userSpaceOnUse">
<stop stop-color="#FFAD3C"/>
<stop offset="1" stop-color="#FC8353"/>
</linearGradient>
</defs>
</svg>
